# xmcd
#
# Track frame offsets: 
#        182
#        14092
#        26470
#        37005
#        50870
#        62967
#        71617
#        82622
#        92700
#        103790
#        114452
#        123252
#        134947
#        148380
#        160360
#        170947
#        182677
#        194867
#        208017
#        219755
#        229672
#        241207
#
# Disc length: 3354 seconds
#
# Revision: 3
# Processed by: cddbd v1.5.1PL0 Copyright (c) Steve Scherf et al.
# Submitted via: ExactAudioCopy v0.95a5
#
DISCID=550d1816
DTITLE=Various Artist - Best Of Bluegrass - Volume 1: The Standards
DYEAR=1991
DGENRE=Bluegrass
TTITLE0=The Stanley Brothers and The Clinch Mountain Boys - I Long To Se
TTITLE0=e The Old Folks
TTITLE1=Carl Story and The Rambling Mountaineers - Family Reunion
TTITLE2=Osborne Brothers and Red Allen - Down In The Willow Garden
TTITLE3=The Country Gentlemen - The Girl Behind The Bar
TTITLE4=Lester Flatt and Earl Scruggs - Pike County Breakdown
TTITLE5=The Lonesome Pine Fiddlers - Blue Moon Of Kentucky
TTITLE6=Lester Flatt and Earl Scruggs - Cora Is Gone
TTITLE7=Rusty York - Dixie Strut
TTITLE8=Lester Flatt and Earl Scruggs - Old Salty Dog Blues
TTITLE9=The Country Gentlemen - Can't You Hear Me Calling
TTITLE10=Arthur Smith With Don Reno - Feudin' Banjos
TTITLE11=Lester Flatt and Earl Scruggs - Roll In My Sweet Baby's Arms
TTITLE12=The Osborne Brothers and Red Allen - Ruby, Are You Mad?
TTITLE13=Lester Flatt and Earl Scruggs - Foggy Mountain Breakdown
TTITLE14=The Osborne Brothers and Red Allen - My Aching Heart
TTITLE15=The Stanley Brothers and The Clinch Mountain Boys - Our Last Go
TTITLE15=odbye
TTITLE16=The Osborne Brothers and Red Allen - Once More
TTITLE17=The Stanley Brothers and The Clinch Mountain Boys - Who Will Ca
TTITLE17=ll You Sweetheart?
TTITLE18=Red Allen - I'm Thinking Tonight Of My Blue Eyes
TTITLE19=The Stanley Brothers and The Clinch Mountain Boys - Loving You 
TTITLE19=Too Well
TTITLE20=The Country Gentlemen - I Am Weary
TTITLE21=The Stanley Brothers and The Clinch Mountain Boys - Angel Band
EXTD=
EXTT0=
EXTT1=
EXTT2=
EXTT3=
EXTT4=
EXTT5=
EXTT6=
EXTT7=
EXTT8=
EXTT9=
EXTT10=
EXTT11=
EXTT12=
EXTT13=
EXTT14=
EXTT15=
EXTT16=
EXTT17=
EXTT18=
EXTT19=
EXTT20=
EXTT21=
PLAYORDER=
